<svg width="176" height="175" viewBox="0 0 176 175" fill="none" xmlns="http://www.w3.org/2000/svg">
<path d="M88 174C136.049 174 175 135.049 175 87C175 38.9512 136.049 0 88 0C39.9512 0 1 38.9512 1 87C1 135.049 39.9512 174 88 174Z" fill="#003CFF" stroke="#003CFF"/>
<path d="M89 161C129.593 161 162 128.593 162 88C162 47.4071 129.593 14 89 14C48.4071 14 15 47.4071 15 88C15 128.593 48.4071 161 89 161Z" fill="white" stroke="#003CFF"/>
<path d="M89.4539 85.4207C76.2489 77.6156 49.3384 61.6707 49.0048 62.0052C48.6712 62.3397 65.8238 74.9674 74.4418 81.2394M89.4539 85.4207C108.636 79.7062 147 68.3608 147 68.6953C147 69.0298 111.179 82.2362 93.2682 88.7976L140.745 108L92.7899 89.9679M89.4539 85.4207C91.4555 86.0899 91.1219 88.2083 90.7049 89.1839M89.4539 85.4207C88.2786 85.0841 87.4765 85.3688 86.9519 85.8591M74.4418 81.2394L66.9359 78.3124L66.1019 80.4031L78.1949 84.6977M74.4418 81.2394L86.9519 85.8591M86.1179 87.5114C86.1179 89.1839 86.7851 89.6857 87.7859 90.0202M86.1179 87.5114L78.1949 84.6977M86.1179 87.5114C86.187 87.0268 86.4343 86.3429 86.9519 85.8591M87.7859 90.0202C89.0369 90.4384 90.2879 90.0202 90.7049 89.1839M87.7859 90.0202H80.6969L83.6159 88.3477L78.1949 84.6977M87.7859 90.0202L94.8749 92.1109L92.7899 89.9679M90.7049 89.1839L92.7899 89.9679" stroke="#003CFF"/>
<path d="M29 123C29.5523 123 30 122.552 30 122C30 121.448 29.5523 121 29 121C28.4477 121 28 121.448 28 122C28 122.552 28.4477 123 29 123Z" stroke="#003CFF"/>
<path d="M20 89C20.5523 89 21 88.5523 21 88C21 87.4477 20.5523 87 20 87C19.4477 87 19 87.4477 19 88C19 88.5523 19.4477 89 20 89Z" stroke="#003CFF"/>
<path d="M29 54C29.5523 54 30 53.5523 30 53C30 52.4477 29.5523 52 29 52C28.4477 52 28 52.4477 28 53C28 53.5523 28.4477 54 29 54Z" stroke="#003CFF"/>
<path d="M54 29C54.5523 29 55 28.5523 55 28C55 27.4477 54.5523 27 54 27C53.4477 27 53 27.4477 53 28C53 28.5523 53.4477 29 54 29Z" stroke="#003CFF"/>
<path d="M88 21C88.5523 21 89 20.5523 89 20C89 19.4477 88.5523 19 88 19C87.4477 19 87 19.4477 87 20C87 20.5523 87.4477 21 88 21Z" stroke="#003CFF"/>
<path d="M122 29C122.552 29 123 28.5523 123 28C123 27.4477 122.552 27 122 27C121.448 27 121 27.4477 121 28C121 28.5523 121.448 29 122 29Z" stroke="#003CFF"/>
<path d="M147 54C147.552 54 148 53.5523 148 53C148 52.4477 147.552 52 147 52C146.448 52 146 52.4477 146 53C146 53.5523 146.448 54 147 54Z" stroke="#003CFF"/>
<path d="M156 88C156.552 88 157 87.5523 157 87C157 86.4477 156.552 86 156 86C155.448 86 155 86.4477 155 87C155 87.5523 155.448 88 156 88Z" stroke="#003CFF"/>
<path d="M147 123C147.552 123 148 122.552 148 122C148 121.448 147.552 121 147 121C146.448 121 146 121.448 146 122C146 122.552 146.448 123 147 123Z" stroke="#003CFF"/>
<path d="M122 148C122.552 148 123 147.552 123 147C123 146.448 122.552 146 122 146C121.448 146 121 146.448 121 147C121 147.552 121.448 148 122 148Z" stroke="#003CFF"/>
<path d="M54 148C54.5523 148 55 147.552 55 147C55 146.448 54.5523 146 54 146C53.4477 146 53 146.448 53 147C53 147.552 53.4477 148 54 148Z" stroke="#003CFF"/>
<path d="M88 157C88.5523 157 89 156.552 89 156C89 155.448 88.5523 155 88 155C87.4477 155 87 155.448 87 156C87 156.552 87.4477 157 88 157Z" stroke="#003CFF"/>
</svg>
