<svg width="1280" height="677" viewBox="0 0 1280 677" fill="none" xmlns="http://www.w3.org/2000/svg">
<rect width="1280" height="677" fill="#003CFF"/>
<path d="M185.675 131H124.896V188.213H185.675M185.675 131V188.213M185.675 131H486.532M185.675 188.213H486.532M486.532 131V188.213M486.532 131H1011.51M486.532 188.213H1011.51M1011.51 131V188.213M1011.51 131H1100.4M1011.51 188.213H1100.4M1100.4 131H1225V188.213H1100.4M1100.4 131V188.213M124.896 250.63V201.045H185.675M124.896 250.63H1225M124.896 250.63V302.503M1225 250.63V201.045H1100.4M1225 250.63V302.503M1225 302.503H124.896M1225 302.503V358.191M124.896 302.503V358.191M124.896 358.191H1225M124.896 358.191V410.064M1225 358.191V410.064M1225 410.064H124.896M1225 410.064V465.752M124.896 410.064V465.752M124.896 465.752H1225M124.896 465.752V525.253M1225 465.752V525.253M124.896 525.253H1225M124.896 525.253V577.127M1225 525.253V577.127M1225 577.127V629H1100.4M1225 577.127H124.896M124.896 577.127V629H185.675M185.675 201.045V629M185.675 201.045H486.532M185.675 629H486.532M486.532 629V201.045M486.532 629H1011.51M486.532 201.045H1011.51M1011.51 201.045V629M1011.51 201.045H1100.4M1011.51 629H1100.4M1100.4 629V201.045M55 415.023V201.045H111.221V415.023M55 415.023V629H111.221V415.023M55 415.023H111.221" stroke="white" stroke-width="2"/>
</svg>
