<svg width="1280" height="1021" viewBox="0 0 1280 1021" fill="none" xmlns="http://www.w3.org/2000/svg">
<rect width="1281" height="1021" fill="#003CFF"/>
<path d="M-3.73828 203H-28.7383V355.5H1286.76V203H3.76172M-3.73828 203V225.5M-3.73828 203H3.76172M3.76172 203V214.5M11.2617 203V214.5M18.7617 203V214.5M26.2617 203V214.5M34.2617 203V220.5M41.7617 203V214.5M49.2617 203V214.5M56.7617 203V214.5M64.2617 203V214.5M72.7617 225.5V203H80.2617V214.5M87.7617 203V214.5M95.2617 203V214.5M102.762 203V214.5M110.762 203V220.5M118.262 203V214.5M125.762 203V214.5M133.262 203V214.5M217.762 203V214.5M149.262 203V225.5M157.262 203V214.5M164.762 203V214.5M172.262 203V214.5M179.762 203V214.5M187.762 203V220.5M195.262 203V214.5M279.262 203V214.5M210.262 203V214.5M226.262 203V225.5M294.262 203V214.5M233.762 203V214.5M241.262 203V214.5M248.762 203V214.5M256.262 203V214.5M264.262 203V220.5M271.762 203V214.5M362.762 203V214.5M302.762 203V225.5M355.262 203V214.5M370.262 203V214.5M309.762 203V214.5M317.262 203V214.5M324.762 203V214.5M332.262 203V214.5M340.262 203V220.5M347.762 203V214.5M378.762 203V225.5M439.762 203V214.5M432.262 203V214.5M447.262 203V214.5M386.762 203V214.5M394.262 203V214.5M401.762 203V214.5M409.262 203V214.5M417.262 203V220.5M424.762 203V214.5M455.762 203V225.5M141 203V214.5M203 203V214.5M287 203V214.5" stroke="white"/>
<path d="M508.762 203V214.5M523.762 203V214.5M463.262 203V214.5M470.762 203V214.5M478.262 203V214.5M485.762 203V214.5M493.762 203V220.5M501.262 203V214.5M516.262 203V214.5M532.262 203V225.5" stroke="white"/>
<path d="M584.762 203V214.5M599.762 203V214.5M539.262 203V214.5M546.762 203V214.5M554.262 203V214.5M561.762 203V214.5M569.762 203V220.5M577.262 203V214.5M592.262 203V214.5M608.262 203V225.5" stroke="white"/>
<path d="M660.762 203V214.5M675.762 203V214.5M615.262 203V214.5M622.762 203V214.5M630.262 203V214.5M637.762 203V214.5M645.762 203V220.5M653.262 203V214.5M668.262 203V214.5M684.262 203V225.5" stroke="white"/>
<path d="M736.762 203V214.5M751.762 203V214.5M691.262 203V214.5M698.762 203V214.5M706.262 203V214.5M713.762 203V214.5M721.762 203V220.5M729.262 203V214.5M744.262 203V214.5M760.262 203V225.5" stroke="white"/>
<path d="M812.762 203V214.5M827.762 203V214.5M767.262 203V214.5M774.762 203V214.5M782.262 203V214.5M789.762 203V214.5M797.762 203V220.5M805.262 203V214.5M820.262 203V214.5M836.262 203V225.5" stroke="white"/>
<path d="M888.762 203V214.5M903.762 203V214.5M843.262 203V214.5M850.762 203V214.5M858.262 203V214.5M865.762 203V214.5M873.762 203V220.5M881.262 203V214.5M896.262 203V214.5M912.262 203V225.5" stroke="white"/>
<path d="M964.762 203V214.5M979.762 203V214.5M919.262 203V214.5M926.762 203V214.5M934.262 203V214.5M941.762 203V214.5M949.762 203V220.5M957.262 203V214.5M972.262 203V214.5M988.262 203V225.5" stroke="white"/>
<path d="M1040.76 203V214.5M1055.76 203V214.5M995.262 203V214.5M1002.76 203V214.5M1010.26 203V214.5M1017.76 203V214.5M1025.76 203V220.5M1033.26 203V214.5M1048.26 203V214.5M1064.26 203V225.5" stroke="white"/>
<path d="M1116.76 203V214.5M1131.76 203V214.5M1071.26 203V214.5M1078.76 203V214.5M1086.26 203V214.5M1093.76 203V214.5M1101.76 203V220.5M1109.26 203V214.5M1124.26 203V214.5M1140.26 203V225.5" stroke="white"/>
<path d="M1192.76 203V214.5M1207.76 203V214.5M1147.26 203V214.5M1154.76 203V214.5M1162.26 203V214.5M1169.76 203V214.5M1177.76 203V220.5M1185.26 203V214.5M1200.26 203V214.5M1216.26 203V225.5" stroke="white"/>
<path d="M1268.76 203V214.5M1283.76 203V214.5M1223.26 203V214.5M1230.76 203V214.5M1238.26 203V214.5M1245.76 203V214.5M1253.76 203V220.5M1261.26 203V214.5M1276.26 203V214.5M1292.26 203V225.5" stroke="white"/>
<path d="M289.685 157.5H430.766M289.685 157.5L282 165M289.685 157.5L282 150M430.766 157.5L439 150M430.766 157.5L439 165" stroke="white"/>
<path d="M35 157.507H212M35 157.507L44.1182 165M35 157.507L44.1182 150M212 157.507L201.809 150M212 157.507L201.809 165" stroke="white"/>
<path d="M640.5 626.005V583.005M640.5 626.005C647.206 625.971 653.704 626.172 660 626.59M640.5 626.005C635.206 626.031 630.041 626.199 625 626.504M639.31 828.505H843.12C843.12 827.844 843.116 827.177 843.108 826.505M639.31 828.505H435.5C435.508 827.844 435.52 827.178 435.535 826.505M639.31 828.505L640.5 859.505M599 587.005L607.5 628.159M607.5 628.159C613.158 627.422 618.99 626.867 625 626.504M607.5 628.159C601.115 628.99 594.95 630.052 589 631.327M557.5 598.505L572 635.71M572 635.71C577.462 634.052 583.127 632.586 589 631.327M572 635.71C565.919 637.555 560.089 639.638 554.5 641.935M518 616.005L538 649.687M538 649.687C543.25 646.892 548.747 644.3 554.5 641.935M538 649.687C532.558 652.584 527.38 655.699 522.457 659.005M482 640.005L508 669.827M508 669.827C512.556 666.037 517.371 662.419 522.457 659.005M508 669.827C503.219 673.805 498.724 677.973 494.5 682.296M451.5 669.827L482.785 695.505M482.785 695.505C486.435 690.973 490.335 686.559 494.5 682.296M482.785 695.505C478.913 700.313 475.323 705.254 472 710.287M425.5 705.505L462.611 726.005M462.611 726.005C465.472 720.698 468.596 715.444 472 710.287M462.611 726.005C459.935 730.97 457.489 735.981 455.261 741.005M408 744.505L448.524 758.005M448.524 758.005C450.506 752.357 452.745 746.674 455.261 741.005M448.524 758.005C446.575 763.556 444.874 769.072 443.401 774.505M395.5 785.505L439.553 791.005M439.553 791.005C440.606 785.629 441.882 780.111 443.401 774.505M439.553 791.005C438.335 797.221 437.415 803.249 436.761 809.005M391.5 826.505H435.535M435.535 826.505C435.664 821.052 436.059 815.185 436.761 809.005M895.91 826.505H843.108M843.108 826.505C843.047 821.194 842.742 815.497 842.157 809.505M884 806.005L842.157 809.505M842.157 809.505C841.594 803.749 840.773 797.722 839.661 791.505M891.5 782.005L839.661 791.505M839.661 791.505C838.728 786.289 837.59 780.939 836.228 775.505M875.5 764.505L836.228 775.505M836.228 775.505C834.826 769.911 833.187 764.227 831.289 758.505M879.5 741.005L831.289 758.505M831.289 758.505C829.526 753.19 827.54 747.842 825.315 742.505M860.5 726.505L825.315 742.505M825.315 742.505C823.082 737.147 820.607 731.8 817.874 726.505M860.5 702.505L817.874 726.505M817.874 726.505C815.314 721.545 812.527 716.631 809.5 711.798M839.661 690.505L809.5 711.798M809.5 711.798C806.348 706.766 802.935 701.821 799.246 697.005M835 668.005L799.246 697.005M799.246 697.005C795.7 692.375 791.899 687.864 787.829 683.505M812 660.505L787.829 683.505M787.829 683.505C783.819 679.21 779.547 675.064 775 671.099M803.5 638.505L775 671.099M775 671.099C770.595 667.258 765.933 663.588 761 660.119M780 634.505L761 660.119M761 660.119C756.254 656.782 751.257 653.63 746 650.692M768 614.505L746 650.692M746 650.692C740.914 647.85 735.584 645.207 730 642.789M743.5 614.505L730 642.789M730 642.789C724.576 640.44 718.912 638.303 713 636.4M728.5 596.505L713 636.4M713 636.4C707.393 634.596 701.562 633.002 695.5 631.638M704.5 601.505L695.5 631.638M695.5 631.638C689.868 630.371 684.037 629.303 678 628.449M686 586.005L678 628.449M678 628.449C672.192 627.627 666.194 627.003 660 626.59M663 594.505L660 626.59M622 594.505L625 626.504M580.5 602.505L589 631.327M541.5 616.005L554.5 641.935M505.5 636.505L522.457 659.005M474 662.505L494.5 682.296M446.5 693.005L472 710.287M425.5 728.005L455.261 741.005M411.5 766.505L443.401 774.505M403.5 807.005L436.761 809.005M1049 966.505V828.505H1005.22C997.245 710.171 913.144 473.805 640.5 475.005C367.856 476.205 283.565 711.171 275.5 828.505H232V966.505H1049Z" stroke="white"/>
<g clip-path="url(#clip0_553_25562)">
<path d="M511 967V955.5M496 967V955.5M556.5 967V955.5M549 967V955.5M541.5 967V955.5M534 967V955.5M526 967V949.5M518.5 967V955.5M503.5 967V955.5M487.5 967V944.5" stroke="white"/>
<path d="M587.5 967V955.5M572.5 967V955.5M633 967V955.5M625.5 967V955.5M618 967V955.5M610.5 967V955.5M602.5 967V949.5M595 967V955.5M580 967V955.5M564 967V944.5" stroke="white"/>
<path d="M664 967V955.5M649 967V955.5M709.5 967V955.5M702 967V955.5M694.5 967V955.5M687 967V955.5M679 967V949.5M671.5 967V955.5M656.5 967V955.5M640.5 967V944.5" stroke="white"/>
<path d="M740.5 967V955.5M725.5 967V955.5M786 967V955.5M778.5 967V955.5M771 967V955.5M763.5 967V955.5M755.5 967V949.5M748 967V955.5M733 967V955.5M717 967V944.5" stroke="white"/>
<path d="M817 967V955.5M802 967V955.5M862.5 967V955.5M855 967V955.5M847.5 967V955.5M840 967V955.5M832 967V949.5M824.5 967V955.5M809.5 967V955.5M793.5 967V944.5" stroke="white"/>
<path d="M893.5 967V955.5M878.5 967V955.5M939 967V955.5M931.5 967V955.5M924 967V955.5M916.5 967V955.5M908.5 967V949.5M901 967V955.5M886 967V955.5M870 967V944.5" stroke="white"/>
<path d="M970 967V955.5M955 967V955.5M1015.5 967V955.5M1008 967V955.5M1000.5 967V955.5M993 967V955.5M985 967V949.5M977.5 967V955.5M962.5 967V955.5M946.5 967V944.5" stroke="white"/>
<path d="M435 967V955.5M420 967V955.5M480.5 967V955.5M473 967V955.5M465.5 967V955.5M458 967V955.5M450 967V949.5M442.5 967V955.5M427.5 967V955.5M411.5 967V944.5" stroke="white"/>
<path d="M359 967V955.5M344 967V955.5M404.5 967V955.5M397 967V955.5M389.5 967V955.5M382 967V955.5M374 967V949.5M366.5 967V955.5M351.5 967V955.5M335.5 967V944.5" stroke="white"/>
<path d="M283 967V955.5M268 967V955.5M328.5 967V955.5M321 967V955.5M313.5 967V955.5M306 967V955.5M298 967V949.5M290.5 967V955.5M275.5 967V955.5M259.5 967V944.5" stroke="white"/>
<path d="M1024 967V944.5" stroke="white"/>
</g>
<defs>
<clipPath id="clip0_553_25562">
<rect width="791" height="50" fill="white" transform="matrix(-1 0 0 -1 1031 967)"/>
</clipPath>
</defs>
</svg>
