<svg width="589" height="676" viewBox="0 0 589 676" fill="none" xmlns="http://www.w3.org/2000/svg">
<path d="M271.568 420.91L568.659 314.716M580.44 347.674L249.92 465.817M591.884 379.69L532.089 401.063M468.998 423.615L306.093 481.845M273.313 531.261L463.056 463.439M527.559 440.382L603.833 413.119M615.613 446.077L285.094 564.219M297.379 598.59L627.899 480.447M1 223.99L281.042 1007.44L904.886 784.454L624.844 1.0001L1 223.99Z" stroke="#003CFF"/>
<path d="M308.264 332.075L321.214 327.446L321.668 329.858L316.425 331.732L319.117 346.037L316.631 346.926L313.939 332.621L308.718 334.487L308.264 332.075ZM333.844 340.773L330.698 324.056L341.953 320.033L342.407 322.445L333.638 325.579L334.419 329.761L341.561 327.208L342.015 329.62L334.874 332.172L335.876 337.472L344.938 334.233L345.393 336.645L333.844 340.773ZM350.89 316.839L363.84 312.21L364.294 314.622L359.051 316.496L361.743 330.8L359.257 331.689L356.565 317.384L351.344 319.251L350.89 316.839ZM373.324 308.82L379.833 306.493C382.951 305.378 385.343 306.435 386.191 308.808C387.298 311.904 385.548 314.925 382.181 316.129L377.638 317.753L378.956 324.648L376.47 325.536L373.324 308.82ZM381.614 313.758C383.196 313.192 384.417 311.761 383.787 309.999C383.327 308.711 382.163 308.235 380.513 308.824L376.264 310.343L377.229 315.325L381.614 313.758ZM401.156 298.77L411.25 313.104L408.651 314.033L406.183 310.481L398.635 313.179L397.735 317.935L395.023 318.905L398.76 299.626L401.156 298.77ZM400.629 302.501L399.117 310.534L404.812 308.499L400.629 302.501ZM419.529 313.968L418.405 307.973L419.897 307.439C420.976 304.327 421.293 301.435 420.045 294.592L419.623 292.27L430.087 288.53L432.778 302.835L435.061 302.019L436.185 308.015L433.834 308.855L433.165 305.271L421.187 309.552L421.856 313.136L419.529 313.968ZM422.789 306.405L430.292 303.723L428.055 291.831L422.541 293.802C423.511 299.011 423.817 303.005 422.789 306.405ZM449.29 287.834C452.702 286.614 455.273 287.887 456.202 290.486C457.47 294.035 455.272 297.369 451.588 298.686L444.966 301.052L441.82 284.336L444.306 283.447L445.402 289.224L449.29 287.834ZM451.111 296.282C453.1 295.571 454.565 293.824 453.782 291.632C453.233 290.095 451.733 289.535 449.812 290.222L445.857 291.635L446.998 297.752L451.111 296.282Z" fill="#003CFF"/>
<path d="M239.822 435.083L238.584 431.617L239.548 431.273C239.917 429.833 239.633 428.184 238.485 424.924L244.376 422.818L246.509 428.785L247.789 428.327L249.028 431.792L247.491 432.342L246.764 430.308L240.662 432.489L241.389 434.523L239.822 435.083ZM241.265 430.659L244.881 429.366L243.26 424.831L240.488 425.822C241.242 427.932 241.422 429.481 241.265 430.659ZM250.373 422.289L250.725 423.369C251.505 425.741 252.095 428.436 249.609 429.325C249.428 429.389 249.257 429.434 249.075 429.448L248.574 428.046C248.69 428.039 248.831 428.006 248.922 427.973C250.006 427.585 249.975 426.356 249.126 423.839L248.31 421.412L254.276 419.28L256.92 426.677L255.293 427.259L253.16 421.293L250.373 422.289ZM258.61 426.073L259.676 422.447C258.524 422.553 257.656 421.979 257.253 420.849C256.8 419.584 257.262 418.213 259.205 417.518L263.092 416.128L265.736 423.526L264.109 424.108L263.199 421.561L261.406 422.202L260.478 425.406L258.61 426.073ZM260.697 420.978L262.731 420.251L261.934 418.021L259.9 418.748C259.041 419.055 258.694 419.654 258.942 420.347C259.195 421.056 259.838 421.285 260.697 420.978Z" fill="#003CFF"/>
<path d="M271.828 405.522L271.705 404.75C272.1 404.286 272.886 403.682 274.107 403.246C275.553 402.729 277.145 402.857 277.732 404.499C277.866 404.876 277.937 405.309 278.022 405.738L278.439 407.95C278.479 408.157 278.539 408.373 278.587 408.509C278.744 408.946 279.057 409.157 279.524 408.99C279.66 408.941 279.79 408.878 279.879 408.795L280.004 409.43C279.85 409.57 279.66 409.655 279.479 409.72C278.846 409.946 278.188 409.722 277.93 408.999C277.484 409.889 276.69 410.852 275.318 411.343C273.782 411.892 272.339 411.422 271.855 410.066C271.235 408.333 272.578 407.004 274.085 406.465C275.516 405.954 276.653 406.091 277.345 406.268L277.231 405.664C277.18 405.427 277.117 405.109 277.026 404.853C276.611 403.693 275.645 403.461 274.213 403.973C273.068 404.382 272.277 405.021 271.828 405.522ZM277.699 408.164L277.461 406.974C276.462 406.652 275.371 406.736 274.422 407.075C273.171 407.522 272.13 408.506 272.571 409.742C272.954 410.812 274.112 411.009 275.332 410.573C276.568 410.131 277.383 408.99 277.699 408.164ZM281.415 400.837L286.553 399.001L287.982 406.612L287.229 406.881L285.946 399.966L282.285 401.274L282.622 403.499C282.964 405.789 283.121 408.367 281.178 409.061C281.027 409.115 280.871 409.154 280.76 409.177L280.633 408.44C280.744 408.418 280.855 408.395 280.99 408.347C282.256 407.894 282.247 405.825 281.816 403.243L281.415 400.837ZM290.632 405.665L289.188 398.059L294.476 396.169L294.623 396.864L290.073 398.491L291.371 405.401L290.632 405.665ZM301.138 401.349C302.042 401.026 302.628 400.527 303.13 399.889L303.304 400.66C302.9 401.195 302.254 401.715 301.274 402.065C299.165 402.819 297.114 402.023 296.376 399.959C295.616 397.834 296.447 395.261 298.827 394.41C300.982 393.64 302.504 394.999 303.021 396.445C303.107 396.686 303.2 396.993 303.235 397.235L297.028 399.454C297.701 401.337 299.315 402.001 301.138 401.349ZM299.009 395.109C297.427 395.675 296.641 397.23 296.877 398.794L302.331 396.845C302.308 396.734 302.287 396.673 302.26 396.598C301.867 395.498 300.697 394.506 299.009 395.109ZM310.321 386.716L310.5 387.502C309.595 388.012 308.948 388.294 307.848 388.925C305.528 390.23 304.832 391.991 305.38 394.616C305.719 393.425 306.583 392.181 308.119 391.632C310.048 390.943 311.865 391.89 312.506 393.683C313.238 395.732 312.293 398.126 310.048 398.929C307.788 399.737 305.893 398.477 305.053 396.126C303.949 393.038 304.292 390.146 307.391 388.358C308.36 387.791 309.195 387.322 310.321 386.716ZM309.866 398.229C311.583 397.615 312.372 395.685 311.758 393.968C311.214 392.446 309.743 391.85 308.252 392.383C306.7 392.938 305.711 394.498 305.795 395.776C306.522 397.81 307.937 398.919 309.866 398.229ZM316.684 399.751L315.946 400.015L313.906 389.224L314.645 388.96L314.847 390.145C315.256 389.149 316.087 388.24 317.292 387.81C319.416 387.05 321.217 388.191 321.874 390.029C322.682 392.289 321.728 394.754 319.393 395.588C317.916 396.116 316.582 395.71 315.806 395.155L316.684 399.751ZM317.354 388.552C316.254 388.945 315.241 390.106 315.052 391.193L315.655 394.257C316.332 394.915 317.674 395.438 319.09 394.932C320.868 394.296 321.827 392.272 321.148 390.373C320.577 388.776 319.056 387.944 317.354 388.552ZM330.581 383.264L331.319 383L332.748 390.611L332.025 390.869L330.581 383.264ZM324.772 388.262L327.002 387.465C328.554 386.911 329.719 387.412 330.16 388.647C330.704 390.169 329.84 391.65 328.198 392.237L324.944 393.4L323.5 385.795L324.268 385.52L324.772 388.262ZM325.551 392.436L327.946 391.58C329.031 391.192 329.87 390.212 329.423 388.962C329.041 387.892 328.143 387.805 326.772 388.295L324.919 388.957L325.551 392.436Z" fill="#003CFF"/>
<path d="M305.034 476.742L303.605 469.131L304.358 468.862L304.954 472.098L308.049 467.542L309.089 467.171L305.764 472.131L311.06 474.588L310.096 474.933L305.061 472.587L305.787 476.473L305.034 476.742ZM311.595 467.532L311.472 466.761C311.867 466.297 312.653 465.693 313.874 465.257C315.32 464.74 316.912 464.867 317.499 466.509C317.634 466.886 317.704 467.32 317.789 467.748L318.206 469.961C318.246 470.168 318.306 470.384 318.355 470.519C318.511 470.956 318.824 471.167 319.291 471C319.427 470.952 319.557 470.888 319.646 470.805L319.771 471.44C319.617 471.58 319.427 471.665 319.246 471.73C318.613 471.956 317.956 471.732 317.697 471.009C317.251 471.9 316.457 472.863 315.086 473.353C313.549 473.902 312.107 473.432 311.622 472.076C311.003 470.344 312.345 469.014 313.852 468.476C315.283 467.964 316.42 468.102 317.112 468.279L316.998 467.674C316.947 467.437 316.885 467.12 316.793 466.864C316.378 465.704 315.412 465.471 313.981 465.983C312.835 466.392 312.045 467.032 311.595 467.532ZM317.467 470.174L317.228 468.985C316.23 468.662 315.138 468.747 314.189 469.086C312.939 469.533 311.897 470.517 312.339 471.752C312.721 472.822 313.879 473.02 315.099 472.584C316.335 472.142 317.15 471.001 317.467 470.174Z" fill="#003CFF"/>
<path d="M450.046 418.729C450.005 418.393 449.962 418.051 449.918 417.705C449.87 417.348 449.83 417.017 449.8 416.71C449.777 416.39 449.761 416.124 449.753 415.912C449.659 416.126 449.554 416.322 449.436 416.5C449.319 416.678 449.183 416.869 449.029 417.071L447.999 418.374L447.026 417.6L449.636 414.254L450.796 413.839L452.336 425.421L450.995 425.9L450.046 418.729ZM458.345 415.763C458.304 415.427 458.261 415.085 458.216 414.738C458.168 414.382 458.129 414.05 458.099 413.744C458.075 413.424 458.059 413.158 458.051 412.945C457.958 413.16 457.852 413.356 457.735 413.534C457.617 413.712 457.481 413.902 457.327 414.105L456.297 415.407L455.324 414.634L457.934 411.288L459.094 410.873L460.634 422.455L459.294 422.934L458.345 415.763Z" fill="#003CFF"/>
<path d="M529.045 436.129L528.478 433.069L529.352 432.757C529.974 431.311 530.118 429.289 529.583 426.319L529.411 425.361L534.533 423.53L535.831 430.441L537.217 429.945L537.784 433.005L537.076 433.258L536.625 430.904L529.318 433.516L529.754 435.875L529.045 436.129ZM530.211 432.45L535.093 430.705L533.926 424.495L530.25 425.809L530.343 426.353C530.829 429.187 530.675 431.179 530.211 432.45ZM539.183 429.99L537.738 422.385L538.477 422.121L539.683 428.537L543.554 420.306L544.232 420.064L545.676 427.669L544.938 427.933L543.722 421.537L539.876 429.743L539.183 429.99ZM551.235 421.332C552.058 421.259 552.984 421.472 553.339 422.466C553.921 424.093 552.528 425.424 550.705 426.076C549.544 426.49 548.545 426.593 547.9 426.501L547.752 425.755C548.442 425.831 549.453 425.759 550.432 425.409C551.713 424.951 553.033 423.986 552.586 422.736C552.284 421.892 551.264 421.747 550.059 422.178L548.869 422.603L548.717 421.893L549.877 421.478C551.263 420.983 551.689 420.083 551.436 419.375C551.15 418.576 550.202 418.49 548.967 418.932C548.123 419.234 547.379 419.72 546.743 420.27L546.611 419.519C547.277 418.958 548.001 418.512 548.92 418.184C550.442 417.64 551.789 417.94 552.177 419.025C552.506 419.944 552.004 420.871 551.235 421.332ZM555.043 417.457L554.92 416.685C555.315 416.221 556.101 415.617 557.322 415.181C558.768 414.664 560.36 414.792 560.947 416.434C561.081 416.81 561.151 417.244 561.237 417.672L561.654 419.885C561.694 420.092 561.754 420.308 561.802 420.444C561.959 420.881 562.272 421.092 562.739 420.925C562.874 420.876 563.005 420.813 563.094 420.73L563.219 421.365C563.065 421.505 562.875 421.59 562.694 421.654C562.061 421.881 561.403 421.657 561.145 420.934C560.698 421.824 559.904 422.787 558.533 423.277C556.997 423.827 555.554 423.357 555.07 422.001C554.45 420.268 555.793 418.939 557.3 418.4C558.731 417.888 559.868 418.026 560.56 418.203L560.446 417.598C560.395 417.362 560.332 417.044 560.241 416.788C559.826 415.628 558.86 415.396 557.428 415.907C556.283 416.317 555.492 416.956 555.043 417.457ZM560.914 420.098L560.676 418.909C559.677 418.587 558.586 418.671 557.637 419.01C556.386 419.457 555.345 420.441 555.786 421.677C556.169 422.746 557.327 422.944 558.547 422.508C559.783 422.066 560.598 420.925 560.914 420.098ZM564.99 420.766L563.546 413.16L564.284 412.896L565.49 419.313L569.361 411.081L570.039 410.839L571.483 418.445L570.745 418.708L569.529 412.312L565.683 420.518L564.99 420.766ZM574.127 417.5L572.683 409.894L573.421 409.63L574.055 412.972L578.996 411.205L578.363 407.864L579.101 407.6L580.545 415.206L579.807 415.469L579.128 411.906L574.186 413.672L574.865 417.236L574.127 417.5ZM582.13 407.775L582.007 407.003C582.402 406.539 583.188 405.935 584.409 405.499C585.855 404.982 587.447 405.109 588.034 406.752C588.169 407.128 588.239 407.562 588.324 407.99L588.741 410.203C588.781 410.41 588.841 410.626 588.89 410.762C589.046 411.198 589.359 411.409 589.826 411.242C589.962 411.194 590.092 411.13 590.181 411.047L590.306 411.682C590.152 411.822 589.962 411.907 589.781 411.972C589.148 412.198 588.491 411.975 588.232 411.251C587.786 412.142 586.992 413.105 585.621 413.595C584.084 414.145 582.641 413.675 582.157 412.319C581.537 410.586 582.88 409.256 584.387 408.718C585.818 408.206 586.955 408.344 587.647 408.521L587.533 407.916C587.482 407.679 587.42 407.362 587.328 407.106C586.913 405.946 585.947 405.714 584.515 406.225C583.37 406.634 582.58 407.274 582.13 407.775ZM588.002 410.416L587.763 409.227C586.765 408.904 585.673 408.989 584.724 409.328C583.473 409.775 582.432 410.759 582.874 411.994C583.256 413.064 584.414 413.262 585.634 412.826C586.87 412.384 587.685 411.243 588.002 410.416Z" fill="#003CFF"/>
<path d="M418.273 544.473L416.176 533.329L416.929 533.06L417.837 537.833L424.632 535.404L423.739 530.626L424.493 530.356L426.59 541.501L425.837 541.77L424.764 536.155L417.969 538.584L419.027 544.204L418.273 544.473ZM429.779 540.361L427.682 529.216L428.435 528.947L430.265 538.726L435.486 526.427L436.164 526.184L438.262 537.329L437.508 537.598L435.667 527.789L430.442 540.124L429.779 540.361ZM446.626 522.445L444.632 532.554C444.184 534.77 443.611 535.637 442.556 536.014C442.104 536.176 441.665 536.231 441.3 536.209L441.152 535.463C441.528 535.515 441.956 535.43 442.273 535.317C443.101 535.021 443.589 534.388 443.934 532.311L443.983 532.021L437.978 525.536L438.792 525.245L444.18 531.05L445.767 522.752L446.626 522.445ZM459.876 523.18C461.228 522.969 462.299 523.588 462.746 524.839C463.505 526.963 462.258 528.751 460.074 529.532L455.057 531.325L452.959 520.181L457.328 518.619C459.031 518.011 460.318 518.57 460.787 519.881C461.223 521.101 460.976 522.311 459.876 523.18ZM453.855 520.643L454.632 524.766L458.248 523.473C459.604 522.988 460.637 521.838 460.093 520.316C459.732 519.306 458.766 518.887 457.471 519.35L453.855 520.643ZM455.668 530.325L459.826 528.839C461.423 528.268 462.573 526.922 461.932 525.13C461.507 523.939 460.413 523.447 458.877 523.996L454.763 525.466L455.668 530.325ZM476.093 511.912L478.19 523.056L466.077 527.386L463.979 516.242L464.733 515.973L466.703 526.381L471.63 524.62L469.659 514.212L470.413 513.942L472.383 524.35L477.295 522.595L475.34 512.181L476.093 511.912ZM480.889 509.994C483.887 508.922 486.616 510.376 487.623 513.194C488.765 516.388 487.425 519.959 484.05 521.166C482.709 521.645 481.555 521.65 480.557 521.378L480.409 520.581C481.417 520.883 482.516 520.915 483.797 520.458C486.343 519.547 487.682 516.877 487.068 514.208L481.81 516.087L481.662 515.342L486.845 513.489C485.968 511.084 483.664 509.818 481.102 510.733C480.078 511.099 479.231 511.725 478.57 512.539L478.4 511.682C479.073 510.949 479.865 510.36 480.889 509.994Z" fill="#003CFF"/>
<path d="M541.118 393.733L539.13 390.978L533.254 393.078L532.5 396.814L531.671 397.11L534.328 384.198L535.021 383.951L541.916 393.448L541.118 393.733ZM534.904 385.097L533.424 392.27L538.713 390.379L534.904 385.097Z" fill="#003CFF"/>
<path d="M261.591 502.828C261.048 503.022 260.509 503.129 260.164 503.066L259.652 501.635C260.058 501.677 260.386 501.644 260.808 501.493C261.682 501.181 261.957 500.335 262.032 498.881L256.245 492.912L258.053 492.266L262.146 496.682L262.438 490.699L264.2 490.069L263.589 499.531C263.479 501.218 262.886 502.365 261.591 502.828ZM272.996 495.268L272.043 492.601C271.541 493.052 270.856 493.416 270.223 493.642C268.265 494.342 266.87 493.957 266.003 491.532L265.335 489.663L266.962 489.082L267.581 490.814C268.087 492.231 268.707 492.587 269.988 492.129C270.5 491.946 271.13 491.568 271.526 491.155L270.352 487.87L271.979 487.288L274.623 494.686L272.996 495.268ZM280.574 492.78C278.329 493.583 275.941 492.703 275.096 490.337C274.32 488.168 275.213 485.912 277.503 485.093C279.868 484.248 281.73 485.842 282.424 487.786L282.575 488.208L276.91 490.232C277.574 491.423 278.932 491.753 280.408 491.225C281.328 490.896 282.044 490.334 282.552 489.711L283.042 491.082C282.605 491.714 281.704 492.376 280.574 492.78ZM276.484 488.992L280.491 487.559C280.191 486.766 279.229 486.022 277.918 486.491C276.667 486.938 276.251 488.055 276.484 488.992ZM285.57 490.773L282.926 483.376L284.553 482.794L285.587 485.687L289.338 484.346L288.304 481.453L289.931 480.871L292.576 488.269L290.949 488.851L289.85 485.777L286.098 487.118L287.197 490.192L285.57 490.773ZM294.898 487.439L292.254 480.041L293.881 479.46L295.674 484.477L297.874 478.033L299.395 477.489L302.04 484.886L300.412 485.468L298.614 480.436L296.42 486.895L294.898 487.439Z" fill="#003CFF"/>
<path d="M477.255 422.256L474.61 414.858L476.238 414.277L477.239 417.079L479.16 413.232L481.24 412.489L478.914 417.058L484.411 419.698L482.181 420.495L477.686 418.33L478.882 421.674L477.255 422.256ZM486.306 412.292L486.658 413.373C487.438 415.745 488.027 418.439 485.541 419.328C485.36 419.393 485.189 419.437 485.007 419.451L484.507 418.05C484.623 418.042 484.764 418.009 484.854 417.976C485.939 417.589 485.907 416.36 485.059 413.842L484.242 411.416L490.209 409.283L492.853 416.681L491.226 417.262L489.093 411.296L486.306 412.292ZM501.669 412.102C501.804 412.054 501.959 411.964 502.068 411.84L502.51 413.076C502.343 413.322 501.963 413.543 501.647 413.656C500.923 413.915 500.193 413.819 499.718 413.156C499.406 413.947 498.696 414.813 497.4 415.276C495.848 415.831 494.305 415.363 493.739 413.781C493.152 412.139 494.262 410.824 495.829 410.264C496.944 409.866 497.785 409.888 498.399 409.991L498.254 409.584C497.796 408.304 496.653 408.339 495.508 408.748C494.649 409.055 493.844 409.7 493.41 410.246L492.898 408.814C493.318 408.324 494.073 407.681 495.369 407.217C497.358 406.507 499.134 406.959 499.802 408.827L500.787 411.585C500.954 412.052 501.307 412.231 501.669 412.102ZM499.143 412.07L498.82 411.166C498.24 411.068 497.456 411.059 496.657 411.345C495.588 411.727 495.076 412.386 495.334 413.109C495.625 413.923 496.462 414.031 497.351 413.713C498.24 413.396 498.888 412.688 499.143 412.07ZM507.701 411.594C505.546 412.364 503.148 411.454 502.308 409.104C501.478 406.784 502.762 404.575 504.931 403.799C505.835 403.476 506.558 403.405 507.344 403.515L507.845 404.916C507.084 404.831 506.407 404.886 505.684 405.145C504.238 405.662 503.423 407.091 503.94 408.537C504.457 409.984 505.999 410.588 507.445 410.071C508.274 409.775 508.857 409.363 509.355 408.76L509.851 410.146C509.288 410.806 508.65 411.255 507.701 411.594ZM515.381 408.849C513.226 409.619 510.828 408.709 509.988 406.359C509.159 404.038 510.442 401.83 512.612 401.054C513.516 400.731 514.238 400.66 515.025 400.769L515.526 402.17C514.765 402.086 514.088 402.141 513.364 402.399C511.918 402.916 511.104 404.346 511.621 405.792C512.138 407.239 513.679 407.843 515.125 407.326C515.954 407.03 516.537 406.617 517.035 406.015L517.531 407.401C516.968 408.061 516.33 408.51 515.381 408.849ZM526.166 403.345C526.302 403.297 526.457 403.208 526.566 403.084L527.007 404.319C526.84 404.566 526.461 404.787 526.144 404.9C525.421 405.158 524.69 405.063 524.215 404.4C523.903 405.191 523.193 406.056 521.898 406.519C520.346 407.074 518.802 406.606 518.237 405.024C517.65 403.382 518.76 402.068 520.327 401.508C521.442 401.109 522.283 401.132 522.897 401.235L522.752 400.828C522.294 399.547 521.151 399.582 520.006 399.991C519.147 400.298 518.341 400.943 517.908 401.489L517.396 400.058C517.816 399.568 518.571 398.924 519.867 398.461C521.855 397.75 523.631 398.203 524.299 400.071L525.285 402.828C525.452 403.295 525.805 403.475 526.166 403.345ZM523.64 403.314L523.317 402.41C522.738 402.311 521.954 402.303 521.155 402.588C520.085 402.97 519.573 403.629 519.832 404.352C520.122 405.166 520.96 405.274 521.849 404.957C522.738 404.639 523.385 403.932 523.64 403.314Z" fill="#003CFF"/>
<path d="M470.807 460.668L468.163 453.27L469.79 452.688L471.923 458.655L474.68 457.669L472.547 451.703L474.175 451.121L476.307 457.088L479.064 456.102L476.932 450.136L478.559 449.554L481.203 456.952L470.807 460.668ZM483.52 456.124L480.875 448.726L482.503 448.144L483.504 450.947L485.425 447.1L487.505 446.356L485.179 450.926L490.676 453.566L488.446 454.363L483.951 452.197L485.147 455.542L483.52 456.124ZM494.682 450.741C496.083 450.24 496.725 448.804 496.224 447.403C495.734 446.032 494.322 445.313 492.921 445.814C491.519 446.315 490.868 447.771 491.358 449.142C491.858 450.543 493.28 451.241 494.682 450.741ZM495.193 452.172C492.783 453.034 490.495 451.863 489.73 449.724C488.971 447.599 489.998 445.244 492.409 444.383C494.804 443.526 497.092 444.697 497.851 446.821C498.616 448.96 497.589 451.316 495.193 452.172ZM501.193 443.078L501.545 444.158C502.325 446.53 502.914 449.225 500.428 450.114C500.247 450.178 500.076 450.223 499.894 450.237L499.394 448.835C499.51 448.828 499.651 448.794 499.741 448.762C500.826 448.374 500.794 447.145 499.946 444.628L499.129 442.201L505.096 440.069L507.74 447.466L506.113 448.048L503.98 442.082L501.193 443.078ZM517.505 443.976L514.861 436.578L516.488 435.996L519.132 443.394L517.505 443.976ZM510.062 446.636L507.418 439.238L509.045 438.657L509.848 440.902L511.641 440.261C513.464 439.609 514.99 440.219 515.545 441.771C516.056 443.202 515.456 444.708 513.558 445.387L510.062 446.636ZM511.2 444.683L512.812 444.107C513.761 443.768 514.172 443.111 513.903 442.358C513.628 441.59 512.899 441.357 511.95 441.697L510.338 442.273L511.2 444.683Z" fill="#003CFF"/>
</svg>
