<svg width="599" height="808" viewBox="0 0 599 808" fill="none" xmlns="http://www.w3.org/2000/svg">
<rect width="662.5" height="832" transform="translate(-54.6621 1) rotate(9.99039)" fill="white"/>
<path d="M83.0116 306.009L393.728 360.743M387.656 395.212L41.978 334.32M381.757 428.697L319.22 417.68M253.236 406.057L82.8593 376.044M29.9209 402.766L228.366 437.723M295.827 449.606L375.599 463.658M369.527 498.128L23.849 437.235M17.5169 473.182L363.195 534.074M-54.6621 1L-199 820.384L453.455 935.317L597.792 115.932L-54.6621 1Z" stroke="#003CFF"/>
<path d="M158.859 246.972L172.403 249.357L171.604 251.678L166.12 250.712L161.381 264.475L158.781 264.017L163.52 250.254L158.06 249.292L158.859 246.972ZM176.784 267.188L182.322 251.105L194.093 253.178L193.294 255.499L184.123 253.883L182.733 257.903L190.202 259.219L189.403 261.539L181.934 260.224L180.183 265.325L189.661 266.995L188.862 269.316L176.784 267.188ZM203.44 254.825L216.983 257.211L216.185 259.531L210.701 258.565L205.962 272.328L203.362 271.87L208.101 258.107L202.641 257.145L203.44 254.825ZM226.903 258.958L233.71 260.157C236.972 260.732 238.527 262.833 238.09 265.315C237.519 268.553 234.504 270.313 230.982 269.692L226.232 268.856L223.965 275.499L221.365 275.041L226.903 258.958ZM231.663 267.351C233.318 267.642 235.087 267.004 235.412 265.16C235.649 263.813 234.873 262.823 233.148 262.519L228.704 261.737L227.078 266.543L231.663 267.351ZM256.061 263.997L257.739 281.449L255.021 280.97L254.635 276.661L246.74 275.271L243.605 278.959L240.768 278.459L253.556 263.555L256.061 263.997ZM253.757 266.978L248.468 273.211L254.424 274.26L253.757 266.978ZM264.506 286.296L266.497 280.53L268.057 280.805C270.535 278.634 272.241 276.278 274.543 269.714L275.325 267.488L286.269 269.415L281.529 283.178L283.916 283.598L281.926 289.365L279.468 288.932L280.66 285.486L268.132 283.279L266.941 286.725L264.506 286.296ZM271.082 281.338L278.929 282.72L282.87 271.278L277.103 270.262C275.368 275.269 273.657 278.891 271.082 281.338ZM303.3 278.313C306.869 278.942 308.473 281.32 307.994 284.038C307.34 287.749 303.78 289.559 299.928 288.88L293.002 287.66L298.541 271.577L301.14 272.035L299.235 277.597L303.3 278.313ZM300.703 286.555C302.783 286.922 304.921 286.129 305.325 283.836C305.608 282.229 304.581 281 302.572 280.646L298.436 279.917L296.401 285.798L300.703 286.555Z" fill="#003CFF"/>
<path d="M48.4118 302.615L49.0502 298.991L50.0587 299.169C51.0918 298.1 51.6613 296.527 52.2766 293.126L58.4378 294.211L57.3386 300.451L58.678 300.687L58.0395 304.311L56.4323 304.028L56.807 301.901L50.4253 300.777L50.0505 302.904L48.4118 302.615ZM51.855 299.485L55.6368 300.151L56.4723 295.408L53.5729 294.898C53.1843 297.104 52.574 298.54 51.855 299.485ZM63.9111 296.719L63.6825 297.832C63.1865 300.279 62.3652 302.913 59.7652 302.455C59.5761 302.421 59.4056 302.375 59.2406 302.297L59.4987 300.832C59.6035 300.883 59.7425 300.923 59.837 300.94C60.9716 301.14 61.5524 300.056 62.0604 297.449L62.5518 294.936L68.7917 296.035L67.4289 303.772L65.7271 303.472L66.8262 297.232L63.9111 296.719ZM69.1963 304.083L71.9167 301.46C70.8636 300.982 70.3934 300.054 70.6016 298.872C70.8348 297.549 71.9143 296.585 73.947 296.943L78.0124 297.659L76.6495 305.396L74.9477 305.097L75.4168 302.434L73.5417 302.103L71.1502 304.428L69.1963 304.083ZM73.531 300.688L75.6583 301.063L76.0691 298.731L73.9419 298.356C73.0437 298.198 72.446 298.547 72.3183 299.272C72.1878 300.013 72.6329 300.53 73.531 300.688Z" fill="#003CFF"/>
<path d="M88.5485 298.923L91.0571 291.599L96.588 292.574L96.3713 293.25L91.6126 292.412L89.3207 299.059L88.5485 298.923ZM99.813 300.371C100.758 300.538 101.515 300.395 102.267 300.089L102.037 300.844C101.421 301.109 100.602 301.241 99.5778 301.061C97.3718 300.672 95.9828 298.965 96.3631 296.807C96.7545 294.585 98.7494 292.759 101.239 293.198C103.492 293.595 104.143 295.529 103.876 297.042C103.832 297.294 103.761 297.606 103.672 297.834L97.1796 296.691C96.8326 298.66 97.9064 300.035 99.813 300.371ZM101.051 293.896C99.3966 293.604 97.9436 294.567 97.375 296.043L103.079 297.047C103.114 296.94 103.125 296.877 103.139 296.798C103.342 295.648 102.816 294.207 101.051 293.896ZM110.305 294.795C112.652 295.208 113.768 297.176 113.418 299.161C113.019 301.43 110.912 303.058 108.501 302.633C106.138 302.216 105.022 300.249 105.372 298.264C105.772 295.995 107.878 294.367 110.305 294.795ZM108.626 301.924C110.501 302.254 112.31 300.932 112.649 299.009C112.943 297.339 111.992 295.823 110.164 295.501C108.304 295.174 106.48 296.493 106.138 298.431C105.844 300.101 106.814 301.605 108.626 301.924ZM124.251 297.446L125.023 297.582L122.499 304.904L121.758 304.773L123.881 298.535L119.572 301.415L119.272 301.362L117.344 297.367L115.203 303.618L114.447 303.485L116.955 296.161L117.696 296.292L119.714 300.514L124.251 297.446ZM129.343 305.573C130.288 305.74 131.044 305.597 131.797 305.291L131.566 306.046C130.951 306.311 130.132 306.443 129.108 306.263C126.901 305.874 125.513 304.167 125.893 302.008C126.284 299.787 128.279 297.961 130.769 298.4C133.022 298.797 133.672 300.731 133.406 302.243C133.362 302.496 133.29 302.808 133.201 303.036L126.709 301.892C126.362 303.862 127.436 305.237 129.343 305.573ZM130.581 299.098C128.926 298.806 127.473 299.769 126.905 301.244L132.609 302.249C132.644 302.142 132.655 302.079 132.669 302C132.872 300.85 132.346 299.409 130.581 299.098ZM135.912 307.266L138.188 300.616L135.336 300.114L135.568 299.44L142.045 300.581L141.812 301.255L138.96 300.752L136.668 307.4L135.912 307.266ZM141.073 311.425L140.301 311.289L143.869 300.902L144.641 301.038L144.231 302.168C145.079 301.505 146.25 301.127 147.511 301.349C149.733 301.74 150.733 303.622 150.395 305.545C149.978 307.908 147.929 309.578 145.487 309.148C143.943 308.876 142.984 307.862 142.584 306.996L141.073 311.425ZM147.197 302.025C146.046 301.822 144.592 302.329 143.89 303.18L142.897 306.141C143.16 307.048 144.068 308.167 145.549 308.428C147.408 308.755 149.243 307.47 149.593 305.485C149.887 303.814 148.977 302.338 147.197 302.025ZM151.393 309.994L153.902 302.67L154.674 302.806L152.547 308.978L159.984 303.741L160.693 303.866L158.185 311.19L157.413 311.054L159.521 304.894L152.118 310.121L151.393 309.994ZM160.949 311.677L163.458 304.353L164.23 304.489L162.103 310.662L169.54 305.424L170.249 305.549L167.741 312.873L166.969 312.737L169.077 306.578L161.674 311.805L160.949 311.677Z" fill="#003CFF"/>
<path d="M90.8923 374.623L91.6813 372.357L84.4644 371.086L86.973 363.762L87.7451 363.898L85.4532 370.546L90.4483 371.425L92.7244 364.775L93.4965 364.912L91.2204 371.561L92.6543 371.814L91.6486 374.756L90.8923 374.623ZM104.258 366.807L105.03 366.943L102.506 374.264L101.749 374.131L104.258 366.807ZM96.7371 368.277L99.0692 368.688C100.692 368.973 101.456 369.985 101.229 371.277C100.948 372.869 99.4647 373.729 97.7471 373.426L94.3435 372.826L96.8521 365.503L97.6558 365.644L96.7371 368.277ZM95.3481 372.289L97.8535 372.73C98.988 372.93 100.202 372.494 100.432 371.186C100.63 370.067 99.8925 369.547 98.4586 369.295L96.5204 368.953L95.3481 372.289Z" fill="#003CFF"/>
<path d="M239.185 392.433C239.316 392.12 239.447 391.802 239.58 391.479C239.715 391.145 239.845 390.838 239.97 390.557C240.108 390.267 240.226 390.028 240.324 389.839C240.137 389.98 239.948 390.098 239.758 390.194C239.567 390.291 239.355 390.389 239.121 390.488L237.582 391.111L237.119 389.957L241.043 388.341L242.256 388.555L237.863 399.381L236.461 399.134L239.185 392.433ZM247.864 393.962C247.995 393.649 248.126 393.331 248.259 393.008C248.394 392.674 248.524 392.367 248.649 392.086C248.787 391.796 248.905 391.557 249.003 391.368C248.816 391.508 248.627 391.627 248.437 391.723C248.246 391.82 248.034 391.918 247.8 392.017L246.261 392.64L245.798 391.486L249.722 389.87L250.935 390.084L246.542 400.91L245.14 400.663L247.864 393.962Z" fill="#003CFF"/>
<path d="M299.223 446.645L300.245 443.706L301.159 443.867C302.414 442.918 303.54 441.232 304.545 438.387L304.869 437.469L310.226 438.413L307.934 445.06L309.384 445.316L308.363 448.255L307.622 448.125L308.395 445.856L300.753 444.51L299.964 446.776L299.223 446.645ZM302.057 444.025L307.162 444.924L309.222 438.951L305.377 438.274L305.188 438.793C304.208 441.496 303.088 443.151 302.057 444.025ZM311.07 446.327L313.579 439.004L314.351 439.14L312.224 445.312L319.661 440.075L320.37 440.2L317.861 447.524L317.089 447.388L319.198 441.228L311.795 446.455L311.07 446.327ZM325.827 444.768C326.579 445.112 327.278 445.755 327.095 446.795C326.795 448.496 324.926 448.963 323.019 448.627C321.806 448.414 320.886 448.008 320.372 447.609L320.613 446.887C321.175 447.295 322.089 447.732 323.113 447.913C324.452 448.149 326.077 447.964 326.307 446.656C326.463 445.773 325.648 445.142 324.387 444.92L323.142 444.701L323.362 444.009L324.575 444.222C326.025 444.478 326.84 443.907 326.971 443.166C327.118 442.331 326.336 441.787 325.044 441.559C324.162 441.404 323.275 441.459 322.45 441.622L322.706 440.904C323.563 440.746 324.413 440.717 325.374 440.886C326.965 441.167 327.988 442.094 327.788 443.229C327.619 444.19 326.725 444.747 325.827 444.768ZM331.054 443.284L331.329 442.553C331.902 442.345 332.884 442.209 334.161 442.434C335.673 442.701 336.994 443.599 336.691 445.317C336.622 445.711 336.468 446.122 336.33 446.537L335.597 448.666C335.53 448.865 335.475 449.083 335.45 449.225C335.37 449.682 335.538 450.02 336.026 450.106C336.168 450.131 336.312 450.14 336.431 450.113L336.225 450.726C336.023 450.772 335.815 450.751 335.626 450.718C334.964 450.601 334.503 450.082 334.636 449.325C333.808 449.878 332.641 450.322 331.207 450.07C329.6 449.787 328.579 448.664 328.829 447.246C329.148 445.434 330.973 444.943 332.549 445.221C334.046 445.485 334.965 446.166 335.479 446.663L335.679 446.081C335.752 445.85 335.855 445.543 335.902 445.275C336.116 444.062 335.391 443.382 333.894 443.118C332.696 442.907 331.693 443.072 331.054 443.284ZM334.849 448.485L335.231 447.334C334.522 446.56 333.532 446.093 332.54 445.918C331.232 445.687 329.84 446.027 329.612 447.319C329.415 448.438 330.324 449.183 331.6 449.408C332.892 449.635 334.165 449.047 334.849 448.485ZM338.061 451.082L340.569 443.758L341.341 443.894L339.214 450.067L346.652 444.83L347.361 444.954L344.852 452.278L344.08 452.142L346.189 445.983L338.786 451.21L338.061 451.082ZM347.617 452.765L350.125 445.441L350.897 445.577L349.795 448.795L354.963 449.705L356.066 446.488L356.838 446.624L354.329 453.948L353.557 453.812L354.731 450.379L349.562 449.469L348.389 452.901L347.617 452.765ZM359.384 448.275L359.659 447.543C360.231 447.335 361.214 447.2 362.49 447.425C364.003 447.691 365.323 448.59 365.02 450.307C364.951 450.701 364.797 451.113 364.659 451.527L363.927 453.656C363.859 453.856 363.805 454.073 363.78 454.215C363.699 454.672 363.867 455.01 364.355 455.096C364.497 455.121 364.642 455.131 364.761 455.103L364.555 455.717C364.352 455.762 364.144 455.742 363.955 455.708C363.293 455.592 362.833 455.072 362.966 454.316C362.137 454.868 360.971 455.313 359.537 455.06C357.929 454.777 356.909 453.655 357.158 452.237C357.478 450.424 359.303 449.934 360.878 450.211C362.375 450.475 363.295 451.157 363.808 451.653L364.009 451.071C364.082 450.84 364.184 450.534 364.232 450.266C364.445 449.052 363.72 448.372 362.223 448.109C361.026 447.898 360.022 448.062 359.384 448.275ZM363.179 453.476L363.56 452.325C362.852 451.55 361.862 451.083 360.869 450.908C359.561 450.678 358.169 451.017 357.942 452.31C357.745 453.428 358.653 454.173 359.93 454.398C361.222 454.626 362.495 454.038 363.179 453.476Z" fill="#003CFF"/>
<path d="M149.351 485.98L153.043 475.258L153.831 475.396L152.257 479.993L159.364 481.245L160.953 476.651L161.741 476.79L158.049 487.512L157.261 487.373L159.108 481.963L152.001 480.711L150.139 486.118L149.351 485.98ZM161.384 488.099L165.076 477.377L165.864 477.516L162.616 486.919L173.239 478.815L173.948 478.94L170.256 489.662L169.468 489.523L172.722 480.089L162.078 488.221L161.384 488.099ZM184.89 480.867L178.155 488.665C176.668 490.369 175.741 490.84 174.638 490.645C174.165 490.562 173.756 490.392 173.45 490.192L173.691 489.471C173.992 489.703 174.406 489.841 174.737 489.899C175.603 490.052 176.34 489.743 177.668 488.108L177.854 487.881L175.845 479.274L176.696 479.424L178.505 487.135L183.991 480.709L184.89 480.867ZM196.04 488.063C197.319 488.548 197.943 489.617 197.713 490.925C197.321 493.146 195.353 494.083 193.068 493.681L187.821 492.756L191.513 482.034L196.083 482.839C197.863 483.153 198.705 484.276 198.464 485.647C198.239 486.923 197.425 487.852 196.04 488.063ZM192.063 482.878L190.698 486.846L194.48 487.512C195.898 487.762 197.365 487.273 197.645 485.681C197.831 484.626 197.2 483.783 195.845 483.545L192.063 482.878ZM188.847 492.19L193.196 492.956C194.866 493.25 196.532 492.65 196.862 490.775C197.081 489.53 196.375 488.561 194.767 488.277L190.466 487.52L188.847 492.19ZM215.708 486.296L212.016 497.018L199.347 494.787L203.039 484.065L203.827 484.203L200.388 494.223L205.541 495.13L208.979 485.111L209.767 485.25L206.329 495.269L211.466 496.174L214.92 486.157L215.708 486.296ZM220.825 487.003C223.96 487.555 225.612 490.169 225.093 493.116C224.504 496.456 221.573 498.897 218.043 498.275C216.641 498.028 215.636 497.461 214.903 496.731L215.168 495.965C215.895 496.727 216.834 497.298 218.173 497.534C220.836 498.003 223.322 496.345 224.109 493.722L218.609 492.754L218.85 492.032L224.271 492.987C224.699 490.463 223.323 488.223 220.644 487.751C219.573 487.562 218.527 487.686 217.55 488.067L217.826 487.238C218.774 486.934 219.753 486.814 220.825 487.003Z" fill="#003CFF"/>
<path d="M325.034 407.877L328.47 408.482C330.739 408.882 331.738 410.309 331.436 412.026C331.019 414.39 328.992 415.479 326.549 415.048L321.995 414.246L325.687 403.524L333.062 404.823L332.824 405.529L326.237 404.368L325.034 407.877ZM323.021 413.68L326.756 414.337C328.568 414.657 330.281 413.967 330.637 411.951C330.892 410.501 330.025 409.52 328.213 409.2L324.794 408.598L323.021 413.68Z" fill="#003CFF"/>
<path d="M33.8046 372.257C33.2373 372.157 32.7154 371.984 32.4466 371.758L32.7103 370.261C33.0422 370.498 33.3434 370.632 33.7846 370.71C34.6986 370.871 35.3564 370.272 36.1411 369.045L34.0662 360.995L35.9571 361.328L37.3288 367.191L40.5425 362.136L42.3861 362.461L37.1731 370.381C36.2421 371.793 35.1597 372.495 33.8046 372.257ZM47.4568 371.331L47.9481 368.542C47.2891 368.686 46.5134 368.663 45.8515 368.546C43.8031 368.186 42.7814 367.161 43.2283 364.624L43.5725 362.67L45.2743 362.97L44.955 364.782C44.6941 366.263 45.0567 366.879 46.3961 367.115C46.9318 367.21 47.6659 367.193 48.2146 367.029L48.8197 363.594L50.5215 363.894L49.1586 371.631L47.4568 371.331ZM55.2724 372.919C52.9246 372.506 51.2853 370.56 51.7211 368.086C52.1208 365.817 54.013 364.298 56.4081 364.72C58.882 365.156 59.7104 367.462 59.3523 369.495L59.2746 369.936L53.3498 368.893C53.3373 370.255 54.3543 371.214 55.8985 371.486C56.8598 371.655 57.7606 371.522 58.5103 371.231L58.2578 372.665C57.5655 372.998 56.4542 373.127 55.2724 372.919ZM53.5932 367.603L57.7847 368.342C57.916 367.504 57.4476 366.381 56.0767 366.14C54.7689 365.909 53.8543 366.674 53.5932 367.603ZM60.6072 373.648L61.9701 365.911L63.6719 366.211L63.1389 369.236L67.0625 369.927L67.5955 366.902L69.2973 367.201L67.9344 374.938L66.2326 374.639L66.7988 371.424L62.8752 370.733L62.309 373.947L60.6072 373.648ZM70.3632 375.366L71.7261 367.629L73.4279 367.929L72.5036 373.176L77.6036 368.665L79.1951 368.945L77.8322 376.682L76.1304 376.382L77.0575 371.119L71.9547 375.647L70.3632 375.366Z" fill="#003CFF"/>
<path d="M261.083 408.962L262.446 401.225L264.148 401.525L263.631 404.456L267.205 402.063L269.379 402.446L265.097 405.266L268.568 410.28L266.236 409.87L263.401 405.764L262.785 409.262L261.083 408.962ZM273.879 404.782L273.65 405.896C273.154 408.343 272.333 410.976 269.733 410.518C269.544 410.485 269.373 410.439 269.208 410.361L269.466 408.895C269.571 408.946 269.71 408.987 269.805 409.004C270.939 409.203 271.52 408.12 272.028 405.512L272.519 403L278.759 404.099L277.396 411.836L275.695 411.536L276.794 405.296L273.879 404.782ZM287.323 412.22C287.465 412.244 287.644 412.244 287.799 412.19L287.572 413.482C287.305 413.614 286.866 413.617 286.535 413.559C285.778 413.426 285.191 412.981 285.106 412.17C284.443 412.703 283.398 413.104 282.043 412.865C280.42 412.579 279.31 411.409 279.602 409.755C279.904 408.037 281.519 407.444 283.158 407.733C284.324 407.938 285.044 408.374 285.527 408.768L285.602 408.342C285.838 407.003 284.827 406.467 283.63 406.256C282.731 406.098 281.712 406.26 281.065 406.519L281.329 405.022C281.936 404.804 282.911 404.619 284.266 404.858C286.346 405.224 287.665 406.496 287.321 408.45L286.813 411.334C286.727 411.822 286.945 412.153 287.323 412.22ZM285.144 410.942L285.31 409.997C284.856 409.624 284.178 409.229 283.343 409.081C282.224 408.884 281.453 409.203 281.32 409.96C281.17 410.811 281.844 411.319 282.774 411.483C283.703 411.647 284.616 411.353 285.144 410.942ZM292.816 414.763C290.563 414.366 288.929 412.389 289.362 409.931C289.789 407.504 291.998 406.22 294.267 406.619C295.212 406.786 295.875 407.081 296.504 407.566L296.246 409.031C295.627 408.581 295.012 408.294 294.255 408.161C292.742 407.894 291.327 408.733 291.061 410.246C290.794 411.759 291.835 413.047 293.348 413.313C294.214 413.466 294.925 413.396 295.656 413.119L295.401 414.568C294.585 414.863 293.809 414.938 292.816 414.763ZM300.849 416.178C298.595 415.781 296.961 413.804 297.395 411.345C297.822 408.919 300.03 407.634 302.299 408.034C303.245 408.201 303.908 408.496 304.537 408.981L304.279 410.446C303.66 409.996 303.044 409.709 302.288 409.576C300.775 409.309 299.36 410.148 299.094 411.661C298.827 413.174 299.867 414.462 301.38 414.728C302.247 414.881 302.958 414.811 303.689 414.534L303.433 415.983C302.618 416.278 301.841 416.353 300.849 416.178ZM312.944 416.733C313.086 416.758 313.265 416.757 313.421 416.703L313.193 417.995C312.926 418.127 312.487 418.131 312.156 418.072C311.399 417.939 310.812 417.494 310.727 416.683C310.065 417.217 309.019 417.617 307.664 417.379C306.041 417.093 304.931 415.922 305.223 414.268C305.525 412.55 307.141 411.958 308.779 412.246C309.945 412.452 310.665 412.887 311.148 413.281L311.223 412.855C311.459 411.516 310.448 410.981 309.251 410.77C308.353 410.611 307.333 410.773 306.686 411.033L306.95 409.536C307.557 409.318 308.532 409.132 309.887 409.371C311.967 409.737 313.286 411.009 312.942 412.963L312.434 415.847C312.348 416.335 312.566 416.666 312.944 416.733ZM310.765 415.455L310.931 414.51C310.477 414.137 309.799 413.742 308.964 413.595C307.845 413.398 307.074 413.717 306.941 414.473C306.791 415.324 307.465 415.833 308.395 415.996C309.325 416.16 310.237 415.866 310.765 415.455Z" fill="#003CFF"/>
<path d="M236.473 439.15L237.836 431.414L239.537 431.713L238.438 437.953L241.322 438.461L242.421 432.221L244.123 432.521L243.024 438.761L245.907 439.269L247.006 433.029L248.708 433.329L247.345 441.066L236.473 439.15ZM249.768 441.492L251.131 433.756L252.833 434.055L252.316 436.986L255.89 434.594L258.064 434.977L253.782 437.797L257.253 442.811L254.921 442.4L252.086 438.294L251.47 441.792L249.768 441.492ZM262.131 442.338C263.597 442.596 264.865 441.666 265.123 440.201C265.376 438.767 264.504 437.444 263.039 437.185C261.573 436.927 260.286 437.87 260.034 439.304C259.776 440.77 260.666 442.08 262.131 442.338ZM261.868 443.835C259.346 443.391 257.938 441.242 258.332 439.004C258.723 436.783 260.781 435.244 263.303 435.688C265.808 436.13 267.217 438.279 266.825 440.501C266.431 442.738 264.373 444.276 261.868 443.835ZM271.581 438.901L271.353 440.015C270.856 442.462 270.035 445.095 267.435 444.637C267.246 444.604 267.076 444.557 266.911 444.48L267.169 443.014C267.273 443.065 267.412 443.106 267.507 443.123C268.642 443.322 269.222 442.239 269.73 439.631L270.222 437.118L276.462 438.218L275.099 445.955L273.397 445.655L274.496 439.415L271.581 438.901ZM285.312 447.754L286.675 440.017L288.377 440.317L287.014 448.053L285.312 447.754ZM277.528 446.382L278.891 438.646L280.593 438.945L280.179 441.293L282.054 441.624C283.961 441.959 284.986 443.245 284.7 444.868C284.436 446.365 283.169 447.376 281.184 447.026L277.528 446.382ZM279.482 445.248L281.169 445.545C282.161 445.72 282.843 445.353 282.982 444.565C283.124 443.761 282.605 443.199 281.613 443.024L279.927 442.727L279.482 445.248Z" fill="#003CFF"/>
</svg>
